PathFileType	4	(X/Y/Z)	./resultDataOpenSim/trcMotMarkerGrf/sub10/qtm-12-01.trc
DataRate	CameraRate	NumFrames	NumMarkers	Units	OrigDataRate	OrigDataStartFrame	OrigNumFrames
250.000000	250.000000	8	24	m	250.000000	233	465
Frame#	Time	L.Toe.Tip			R.Toe.Tip			L.Ankle.Lat			R.Ankle.Lat			L.Ankle.Med			R.Ankle.Med			L.Heel			R.Heel			L.Knee.Lat			R.Knee.Lat			L.Knee.Med			R.Knee.Med			L.Thigh.Upper			R.Thigh.Upper			L.ASIS			R.ASIS			V.Sacral			L.Acromium			R.Acromium			C7			L.Elbow			R.Elbow			L.Wrist.Lat			R.Wrist.Lat
		X1	Y1	Z1	X2	Y2	Z2	X3	Y3	Z3	X4	Y4	Z4	X5	Y5	Z5	X6	Y6	Z6	X7	Y7	Z7	X8	Y8	Z8	X9	Y9	Z9	X10	Y10	Z10	X11	Y11	Z11	X12	Y12	Z12	X13	Y13	Z13	X14	Y14	Z14	X15	Y15	Z15	X16	Y16	Z16	X17	Y17	Z17	X18	Y18	Z18	X19	Y19	Z19	X20	Y20	Z20	X21	Y21	Z21	X22	Y22	Z22	X23	Y23	Z23	X24	Y24	Z24

233	0.928	-0.017983768	0.017533738	-0.16592447	-0.030429756	0.10517526	0.069751103	-0.14868362	0.040831884	-0.2076608	-0.14750858	0.18710295	0.062745805	-0.15055242	0.064501992	-0.12285884	-0.099077598	0.18188224	-0.014154936	-0.21910991	0.0095380701	-0.17171241	-0.19349309	0.17377894	0.0072542119	-0.069244779	0.41873541	-0.23597916	0.081462866	0.49261683	0.067851679	-0.078200836	0.40211866	-0.11515758	0.12937492	0.48671009	-0.057088539	-0.080264847	0.81675219	-0.30186589	-0.1326558	0.82806899	0.0728114	-0.028833996	0.92305984	-0.22769601	-0.056682651	0.92886033	0.013700296	-0.24241375	0.94210728	-0.13518987	-0.015729515	1.3867083	-0.25164869	-0.10005897	1.392997	0.056260309	-0.13586028	1.4275879	-0.12351922	-0.11779444	1.0659672	-0.36742678	-0.27077772	1.0839195	0.10252397	0.075473098	0.9033399	-0.4028782	-0.1452644	0.89579467	0.21217032
234	0.932	-0.017910434	0.017458032	-0.16590787	-0.0085942629	0.10392268	0.07136251	-0.14859573	0.040872832	-0.2075686	-0.12830937	0.18172136	0.064489842	-0.15043915	0.064505021	-0.12277187	-0.080004317	0.17792688	-0.012618176	-0.21909521	0.0096801278	-0.17160567	-0.17434983	0.1667884	0.0093438165	-0.068000443	0.41863017	-0.23594523	0.091506951	0.49474286	0.067568425	-0.077033815	0.40190649	-0.11506554	0.13873084	0.49028884	-0.057386755	-0.075837604	0.81650214	-0.30186053	-0.1260135	0.82890934	0.07337752	-0.023613039	0.92316255	-0.22780414	-0.050256951	0.92956811	0.013393709	-0.23551173	0.94225644	-0.13560241	-0.0096172419	1.3870125	-0.25116487	-0.094116164	1.3931843	0.056665768	-0.12980038	1.4279933	-0.12313849	-0.10986244	1.0656948	-0.36603223	-0.26613794	1.0851315	0.10215765	0.08701656	0.9057453	-0.40291119	-0.14370618	0.89567263	0.21296874
235	0.936	-0.017827585	0.017390675	-0.16588126	0.013297682	0.10274483	0.072914166	-0.14850827	0.040911991	-0.20747002	-0.10891978	0.17633093	0.066136092	-0.15031746	0.064524459	-0.12267301	-0.060742991	0.17397197	-0.011124448	-0.2190633	0.0098275777	-0.17152744	-0.15479762	0.15973909	0.011327293	-0.066848755	0.41849509	-0.2358395	0.10136071	0.49671514	0.067353366	-0.075920366	0.40168385	-0.11493434	0.14782415	0.49371509	-0.057659183	-0.071331518	0.81617512	-0.30189063	-0.11932188	0.8297041	0.073992118	-0.018434818	0.9232175	-0.22793117	-0.043823194	0.93020552	0.013099584	-0.22930188	0.94235049	-0.13519822	-0.0035473242	1.387297	-0.25070367	-0.088235494	1.3933039	0.05707233	-0.12375166	1.4283233	-0.12272605	-0.10190083	1.0653952	-0.36461072	-0.26149891	1.0862987	0.10181985	0.098478464	0.90816766	-0.40288344	-0.14217237	0.89554354	0.21375114
236	0.94	-0.017754182	0.017332305	-0.16585463	0.035277004	0.10165988	0.074405012	-0.14842159	0.040953798	-0.20735895	-0.089336078	0.1709492	0.067683465	-0.15024241	0.064549639	-0.12255413	-0.041291999	0.17004398	-0.0096750677	-0.21899502	0.0099604804	-0.17150519	-0.13483748	0.15265238	0.013178834	-0.065780142	0.41835087	-0.23567593	0.1110097	0.49855141	0.067206798	-0.074778646	0.40145609	-0.11476578	0.15665163	0.4969744	-0.05790382	-0.066498398	0.81585053	-0.3017657	-0.11258202	0.83045749	0.074652092	-0.01330336	0.92322582	-0.22807983	-0.037364009	0.93077882	0.012819417	-0.22374824	0.94232702	-0.13422357	0.0024862926	1.3875585	-0.25025695	-0.082367906	1.3933804	0.057478119	-0.11773866	1.4286036	-0.12231769	-0.093907202	1.0650686	-0.36317996	-0.25685913	1.0874104	0.10150932	0.10984561	0.91058671	-0.40279944	-0.14067028	0.8954117	0.2145257
237	0.944	-0.017694781	0.01728024	-0.16582617	0.057365851	0.10068141	0.075823958	-0.14833226	0.0410029	-0.20722783	-0.069554681	0.16559795	0.069146261	-0.15023882	0.064567698	-0.12240534	-0.021697961	0.16614402	-0.0082978967	-0.21887717	0.010057163	-0.17154576	-0.11458411	0.14559663	0.014866364	-0.064793347	0.41822144	-0.23548217	0.12046224	0.50026276	0.067115948	-0.073554957	0.40122955	-0.11458209	0.16521499	0.5000485	-0.058115859	-0.061210637	0.81560186	-0.30137753	-0.105801	0.83116743	0.075348781	-0.0081894661	0.92319123	-0.22823945	-0.030872536	0.93127923	0.012564367	-0.21844227	0.94222932	-0.13292797	0.0084844721	1.3877957	-0.24982024	-0.076476417	1.3934396	0.057878602	-0.11176683	1.4288315	-0.12193011	-0.085879109	1.0647154	-0.36175772	-0.25221065	1.0884658	0.10122801	0.12110935	0.91298766	-0.40265964	-0.13920552	0.89527843	0.21529728
238	0.948	-0.017644741	0.017230371	-0.16579176	0.079554093	0.099825276	0.077138386	-0.14824273	0.041059424	-0.20707959	-0.049579197	0.16030275	0.070539025	-0.15029231	0.064577499	-0.12223552	-0.0020097966	0.16227376	-0.0070263633	-0.21872757	0.010118463	-0.1716146	-0.094047547	0.13862746	0.016287533	-0.063865057	0.41812405	-0.23529435	0.12972875	0.50185457	0.067065972	-0.072329869	0.40101058	-0.11438434	0.17351592	0.50291833	-0.058284452	-0.055644229	0.81543217	-0.30084419	-0.099009105	0.83181823	0.076056617	-0.0030629444	0.92311581	-0.22839464	-0.024359811	0.93169163	0.012347101	-0.2130541	0.94216986	-0.1315173	0.014442372	1.3880076	-0.24939529	-0.070569115	1.3934841	0.058272887	-0.10581595	1.4289838	-0.12154282	-0.077814441	1.064336	-0.36036153	-0.2475413	1.0894689	0.10097003	0.13226962	0.91536843	-0.40245856	-0.13777768	0.89514224	0.21606494
239	0.952	-0.017597481	0.017178913	-0.16574824	0.10179245	0.099113849	0.07830146	-0.1481672	0.041118016	-0.20692841	-0.029406208	0.15508127	0.071859108	-0.15035678	0.06459309	-0.122076	0.017748624	0.15847517	-0.0058713732	-0.21859015	0.010178436	-0.17166091	-0.07310212	0.13177575	0.017356744	-0.062899683	0.41804927	-0.23514859	0.13880548	0.5033241	0.06704767	-0.071216075	0.40079905	-0.11416038	0.18155188	0.5055655	-0.058396359	-0.050140454	0.81528016	-0.30039899	-0.092257526	0.83238935	0.076735861	0.0020893512	0.92299961	-0.2285363	-0.017848245	0.9320074	0.012165975	-0.20747239	0.942231	-0.13012102	0.020361855	1.3881912	-0.24898235	-0.064671683	1.393501	0.058665906	-0.099870115	1.4290563	-0.12113679	-0.069710556	1.0639306	-0.35900971	-0.24283984	1.0904227	0.10071989	0.14332972	0.91772875	-0.40219144	-0.13637274	0.89500117	0.2168257
240	0.956	-0.017548482	0.017124588	-0.16569487	0.12402494	0.098566783	0.079277611	-0.14812103	0.041171916	-0.206783	-0.0090334847	0.14994726	0.073098654	-0.15039057	0.064627279	-0.12195189	0.037575387	0.15482656	-0.0048189979	-0.21849477	0.010274553	-0.1716619	-0.051686318	0.1250737	0.018132659	-0.061775788	0.41795349	-0.23505192	0.14767955	0.50465782	0.067059983	-0.070196673	0.40058235	-0.11392853	0.18931564	0.50797369	-0.058442307	-0.044866876	0.81509678	-0.30013099	-0.085574934	0.83287608	0.077361494	0.0072542258	0.92284021	-0.22867188	-0.011356715	0.93222813	0.012006741	-0.20171529	0.94244316	-0.12878881	0.026258144	1.3883407	-0.24857801	-0.058792478	1.3934809	0.059060553	-0.093924426	1.4290633	-0.12071282	-0.061563338	1.0634992	-0.35772281	-0.2381058	1.0913277	0.10046577	0.15429009	0.92006223	-0.40186123	-0.13496645	0.89485595	0.2175739
